<svg width="69" height="69" viewBox="0 0 69 69" fill="none" xmlns="http://www.w3.org/2000/svg">
<rect x="2.5" y="2.5" width="64" height="64" rx="32" fill="white"/>
<rect x="2.5" y="2.5" width="64" height="64" rx="32" stroke="#9E9E9E" stroke-width="5"/>
<path d="M34.4999 29.9168C39.5625 29.9168 43.6666 25.8128 43.6666 20.7502C43.6666 15.6876 39.5625 11.5835 34.4999 11.5835C29.4373 11.5835 25.3333 15.6876 25.3333 20.7502C25.3333 25.8128 29.4373 29.9168 34.4999 29.9168Z" fill="#9E9E9E"/>
<path d="M52.8334 47.104C52.8334 52.7988 52.8334 57.4165 34.5001 57.4165C16.1667 57.4165 16.1667 52.7988 16.1667 47.104C16.1667 41.4092 24.3755 36.7915 34.5001 36.7915C44.6247 36.7915 52.8334 41.4092 52.8334 47.104Z" fill="#9E9E9E"/>
</svg>
